<svg width="15" height="16" viewBox="0 0 15 16" fill="none" xmlns="http://www.w3.org/2000/svg">
<g id="&#240;&#159;&#166;&#134; icon &#34;google&#34;">
<path id="Vector" d="M13.9961 6.61674H13.4625V6.58743H7.5V9.41239H11.2441C10.6979 11.0569 9.23012 12.2374 7.5 12.2374C5.30481 12.2374 3.525 10.34 3.525 7.99991C3.525 5.65978 5.30481 3.76246 7.5 3.76246C8.51329 3.76246 9.43516 4.16996 10.1371 4.8356L12.011 2.83799C10.8277 1.66246 9.24503 0.9375 7.5 0.9375C3.84134 0.9375 0.875 4.09969 0.875 7.99991C0.875 11.9001 3.84134 15.0623 7.5 15.0623C11.1587 15.0623 14.125 11.9001 14.125 7.99991C14.125 7.52637 14.0793 7.06414 13.9961 6.61674Z" fill="#FFC107"/>
<path id="Vector_2" d="M1.63867 4.71271L3.81532 6.4144C4.40428 4.85996 5.83064 3.76246 7.49981 3.76246C8.5131 3.76246 9.43497 4.16996 10.1369 4.8356L12.0108 2.83799C10.8275 1.66246 9.24483 0.9375 7.49981 0.9375C4.95515 0.9375 2.74836 2.46898 1.63867 4.71271Z" fill="#FF3D00"/>
<path id="Vector_3" d="M7.50045 15.0623C9.21168 15.0623 10.7666 14.3641 11.9422 13.2289L9.89174 11.3792C9.22659 11.9163 8.39979 12.2373 7.50045 12.2373C5.77728 12.2373 4.31415 11.066 3.76295 9.4314L1.60254 11.2058C2.69898 13.493 4.92564 15.0623 7.50045 15.0623Z" fill="#4CAF50"/>
<path id="Vector_4" d="M13.9961 6.61671H13.4625V6.5874H7.5V9.41237H11.2441C10.9818 10.2023 10.5051 10.8835 9.8903 11.3796C9.89063 11.3792 9.89096 11.3792 9.89129 11.3789L11.9417 13.2285C11.7966 13.3691 14.125 11.5311 14.125 7.99988C14.125 7.52635 14.0793 7.06411 13.9961 6.61671Z" fill="#1976D2"/>
</g>
</svg>
