<svg width="13" height="16" viewBox="0 0 13 16" fill="none" xmlns="http://www.w3.org/2000/svg">
<g id="&#240;&#159;&#166;&#134; icon &#34;Apple&#34;">
<path id="Vector" d="M10.4879 8.40158C10.4816 7.24466 11.0048 6.37146 12.064 5.72837C11.4714 4.88039 10.5761 4.41384 9.39399 4.32242C8.2749 4.23416 7.05179 4.97496 6.60415 4.97496C6.1313 4.97496 5.04689 4.35395 4.19575 4.35395C2.43673 4.38232 0.567383 5.75675 0.567383 8.55289C0.567383 9.37881 0.718696 10.232 1.02132 11.1126C1.42482 12.2695 2.88121 15.1066 4.40065 15.0594C5.19505 15.0404 5.75617 14.4951 6.79014 14.4951C7.79259 14.4951 8.31273 15.0594 9.19854 15.0594C10.7306 15.0373 12.0483 12.4587 12.4329 11.2986C10.3775 10.3308 10.4879 8.46147 10.4879 8.40158ZM8.70362 3.2254C9.56422 2.20404 9.48541 1.27409 9.46019 0.939941C8.70047 0.984074 7.82096 1.45693 7.31974 2.04011C6.76807 2.66428 6.44338 3.43661 6.51273 4.30666C7.3355 4.36971 8.08576 3.94729 8.70362 3.2254Z" fill="black"/>
</g>
</svg>
